# Made in Blockbench 5.0.1
mtllib vendingMachine.mtl

o cuboid
v 2 6 1.0625
v 2 6 -1.0625
v 2 0 1.0625
v 2 0 -1.0625
v -2 6 1.0625
v -2 6 -1.0625
v -2 0 1.0625
v -2 0 -1.0625
v 2 1.5 1.0625
v -2 1.5 1.0625
v 2 5.5625 1.0625
v -2 5.5625 1.0625
v -2 1.5 -1.0625
v -2 5.5625 -1.0625
v 2 1.5 -1.0625
v 2 5.5625 -1.0625
v -1.604166666666667 6 1.0625
v -1.604166666666667 6 -1.0625
v 0.9166666666666665 6 1.0625
v 0.9166666666666665 6 -1.0625
v -1.604166666666667 5.5625 -1.0625
v 0.9166666666666665 5.5625 -1.0625
v -1.604166666666667 1.5 -1.0625
v 0.9166666666666665 1.5 -1.0625
v -1.604166666666667 0 -1.0625
v 0.9166666666666665 0 -1.0625
v -1.604166666666667 0 1.0625
v 0.9166666666666665 0 1.0625
v -1.604166666666667 1.5 1.0625
v 0.9166666666666665 1.5 1.0625
v -1.604166666666667 5.5625 1.0625
v 0.9166666666666665 5.5625 1.0625
v -2 0.625 1.0625
v -2 0.625 -1.0625
v -2 1.1875 1.0625
v -2 1.1875 -1.0625
v -1.604166666666667 0.625 -1.0625
v -1.604166666666667 1.1875 -1.0625
v 0.9166666666666665 0.625 -1.0625
v 0.9166666666666665 1.1875 -1.0625
v 2 0.625 -1.0625
v 2 1.1875 -1.0625
v 2 0.625 1.0625
v 2 1.1875 1.0625
v 0.9166666666666665 0.625 1.0625
v 0.9166666666666665 1.1875 1.0625
v -1.604166666666667 0.625 1.0625
v -1.604166666666667 1.1875 1.0625
v -1.604166666666667 1.5 0.875
v 0.9166666666666665 1.5 0.875
v 0.9166666666666665 5.5625 0.875
v -1.604166666666667 5.5625 0.875
v 0.9166666666666665 0.625 1
v 0.9166666666666665 1.1875 1
v -1.604166666666667 1.1875 1
v -1.604166666666667 0.625 1
v -0.9739583333333336 5.671875 1.0625
v 0.28645833333333315 5.671875 1.0625
v 0.28645833333333315 5.890625 1.0625
v -0.9739583333333336 5.890625 1.0625
v -0.9739583333333336 5.671875 1.125
v 0.28645833333333315 5.671875 1.125
v 0.28645833333333315 5.890625 1.125
v -0.9739583333333336 5.890625 1.125
v 1.7291666666666665 4.046875 1.0625
v 1.1875 2.765625 1.0625
v 1.1875 4.046875 1.0625
v 1.7291666666666665 2.765625 1.0625
v 1.7291666666666665 4.046875 1.125
v 1.1875 2.765625 1.125
v 1.1875 4.046875 1.125
v 1.7291666666666665 2.765625 1.125
vt 0 0.62109375
vt 0 0.59375
vt 0.1328125 0.59375
vt 0.1328125 0.62109375
vt 0.13671875 0.62109375
vt 0.13671875 0.59375
vt 0.26953125 0.59375
vt 0.26953125 0.62109375
vt 0.68359375 0.62109375
vt 0.615885546875 0.62109375
vt 0.615885546875 0.48828125
vt 0.68359375 0.48828125
vt 0.7578125 1
vt 0.690104296875 1
vt 0.690104296875 0.8671875
vt 0.7578125 0.8671875
vt 0.25 1
vt 0.182291796875 1
vt 0.182291796875 0.97265625
vt 0.25 0.97265625
vt 0.25390625 0.97265625
vt 0.32161445312500003 0.97265625
vt 0.32161445312500003 1
vt 0.25390625 1
vt 0.182291796875 0.71875
vt 0.182291796875 0.69921875
vt 0.25 0.69921875
vt 0.25 0.71875
vt 0.06640625 0.96484375
vt 0.03125 0.96484375
vt 0.03125 0.8828125
vt 0.06640625 0.8828125
vt 0.13671875 0.33984375
vt 0.13671875 0.3203125
vt 0.26953125 0.3203125
vt 0.26953125 0.33984375
vt 0.26953125 0.33984375
vt 0.26953125 0.59375
vt 0.13671875 0.59375
vt 0.13671875 0.33984375
vt 0.25390625 0.71875
vt 0.25390625 0.69921875
vt 0.32161445312500003 0.69921875
vt 0.32161445312500003 0.71875
vt 0.25390625 0.71875
vt 0.32161445312500003 0.71875
vt 0.32161445312500003 0.97265625
vt 0.25390625 0.97265625
vt 0 0.33984375
vt 0 0.3203125
vt 0.1328125 0.3203125
vt 0.1328125 0.33984375
vt 0.1328125 0.33984375
vt 0.1328125 0.59375
vt 0 0.59375
vt 0 0.33984375
vt 0.43359375 0.48828125
vt 0.45833320312500003 0.48828125
vt 0.45833320312500003 0.62109375
vt 0.43359375 0.62109375
vt 0.45833320312500003 0.48828125
vt 0.615885546875 0.48828125
vt 0.615885546875 0.62109375
vt 0.45833320312500003 0.62109375
vt 0.50390625 1
vt 0.47916679687499997 1
vt 0.47916679687499997 0.97265625
vt 0.50390625 0.97265625
vt 0.47916679687499997 1
vt 0.32161445312500003 1
vt 0.32161445312500003 0.97265625
vt 0.47916679687499997 0.97265625
vt 0.50390625 0.97265625
vt 0.47916679687499997 0.97265625
vt 0.47916679687499997 0.71875
vt 0.50390625 0.71875
vt 0.47916679687499997 0.97265625
vt 0.32161445312500003 0.97265625
vt 0.32161445312500003 0.71875
vt 0.47916679687499997 0.71875
vt 0.47916679687499997 0.71875
vt 0.47916679687499997 0.69921875
vt 0.50390625 0.69921875
vt 0.50390625 0.71875
vt 0.32161445312500003 0.71875
vt 0.32161445312500003 0.69921875
vt 0.47916679687499997 0.69921875
vt 0.47916679687499997 0.71875
vt 0.5078125 0.8671875
vt 0.532551953125 0.8671875
vt 0.532551953125 1
vt 0.5078125 1
vt 0.532551953125 0.8671875
vt 0.690104296875 0.8671875
vt 0.690104296875 1
vt 0.532551953125 1
vt 0 0.71875
vt 0 0.69921875
vt 0.024739453125000005 0.69921875
vt 0.024739453125000005 0.71875
vt 0.024739453125000005 0.71875
vt 0.024739453125000005 0.69921875
vt 0.182291796875 0.69921875
vt 0.182291796875 0.71875
vt 0 0.71875
vt 0.024739453125000005 0.71875
vt 0.024739453125000005 0.97265625
vt 0 0.97265625
vt 0.2734375 0.3671875
vt 0.4296875 0.3671875
vt 0.4296875 0.62109375
vt 0.2734375 0.62109375
vt 0 0.97265625
vt 0.02473945312499999 0.97265625
vt 0.02473945312499999 1
vt 0 1
vt 0.0703125 0.94921875
vt 0.1484375 0.94921875
vt 0.1484375 0.96484375
vt 0.0703125 0.96484375
vt 0.26953125 0.24609375
vt 0.26953125 0.28515625
vt 0.13671875 0.28515625
vt 0.13671875 0.24609375
vt 0.26953125 0.28515625
vt 0.26953125 0.3203125
vt 0.13671875 0.3203125
vt 0.13671875 0.28515625
vt 0.50390625 0.625
vt 0.50390625 0.6640625
vt 0.47916679687499997 0.6640625
vt 0.47916679687499997 0.625
vt 0.50390625 0.6640625
vt 0.50390625 0.69921875
vt 0.47916679687499997 0.69921875
vt 0.47916679687499997 0.6640625
vt 0.47916679687499997 0.625
vt 0.47916679687499997 0.6640625
vt 0.32161445312500003 0.6640625
vt 0.32161445312500003 0.625
vt 0.47916679687499997 0.6640625
vt 0.47916679687499997 0.69921875
vt 0.32161445312500003 0.69921875
vt 0.32161445312500003 0.6640625
vt 0.32161445312500003 0.625
vt 0.32161445312500003 0.6640625
vt 0.25390625 0.6640625
vt 0.25390625 0.625
vt 0.32161445312500003 0.6640625
vt 0.32161445312500003 0.69921875
vt 0.25390625 0.69921875
vt 0.25390625 0.6640625
vt 0.1328125 0.24609375
vt 0.1328125 0.28515625
vt 0 0.28515625
vt 0 0.24609375
vt 0.1328125 0.28515625
vt 0.1328125 0.3203125
vt 0 0.3203125
vt 0 0.28515625
vt 0.25 0.625
vt 0.25 0.6640625
vt 0.182291796875 0.6640625
vt 0.182291796875 0.625
vt 0.25 0.6640625
vt 0.25 0.69921875
vt 0.182291796875 0.69921875
vt 0.182291796875 0.6640625
vt 0.182291796875 0.625
vt 0.182291796875 0.6640625
vt 0.024739453125000005 0.6640625
vt 0.024739453125000005 0.625
vt 0.6640625 0.828125
vt 0.6640625 0.86328125
vt 0.5078125 0.86328125
vt 0.5078125 0.828125
vt 0.024739453125000005 0.625
vt 0.024739453125000005 0.6640625
vt 0 0.6640625
vt 0 0.625
vt 0.024739453125000005 0.6640625
vt 0.024739453125000005 0.69921875
vt 0 0.69921875
vt 0 0.6640625
vt 0.6640625 0.82421875
vt 0.5078125 0.82421875
vt 0.5078125 0.8125
vt 0.6640625 0.8125
vt 0.43359375 0.484375
vt 0.43359375 0.23046875
vt 0.4453125 0.23046875
vt 0.4453125 0.484375
vt 0.5078125 0.796875
vt 0.6640625 0.796875
vt 0.6640625 0.80859375
vt 0.5078125 0.80859375
vt 0.4609375 0.23046875
vt 0.4609375 0.484375
vt 0.44921875 0.484375
vt 0.44921875 0.23046875
vt 0.0859375 0.9296875
vt 0.0859375 0.89453125
vt 0.08984375 0.89453125
vt 0.08984375 0.9296875
vt 0.5078125 0.7890625
vt 0.6640625 0.7890625
vt 0.6640625 0.79296875
vt 0.5078125 0.79296875
vt 0.09765625 0.89453125
vt 0.09765625 0.9296875
vt 0.09375 0.9296875
vt 0.09375 0.89453125
vt 0.6640625 0.78515625
vt 0.5078125 0.78515625
vt 0.5078125 0.78125
vt 0.6640625 0.78125
vt 0.142903515625 0.9794921875
vt 0.064127734375 0.9794921875
vt 0.024739453125000005 0.97265625
vt 0.182291796875 0.97265625
vt 0.142903515625 0.9931640625
vt 0.142903515625 0.9794921875
vt 0.182291796875 0.97265625
vt 0.182291796875 1
vt 0.064127734375 0.9931640625
vt 0.142903515625 0.9931640625
vt 0.182291796875 1
vt 0.024739453125000005 1
vt 0.064127734375 0.9794921875
vt 0.064127734375 0.9931640625
vt 0.02473945312499999 1
vt 0.02473945312499999 0.97265625
vt 0.1640625 0.9453125
vt 0.0859375 0.9453125
vt 0.0859375 0.94140625
vt 0.1640625 0.94140625
vt 0.1015625 0.921875
vt 0.1015625 0.90625
vt 0.10546875 0.90625
vt 0.10546875 0.921875
vt 0.0859375 0.93359375
vt 0.1640625 0.93359375
vt 0.1640625 0.9375
vt 0.0859375 0.9375
vt 0.10546875 0.88671875
vt 0.10546875 0.90234375
vt 0.1015625 0.90234375
vt 0.1015625 0.88671875
vt 0.19921875 0.8779296875
vt 0.233073046875 0.8779296875
vt 0.25 0.97265625
vt 0.182291796875 0.97265625
vt 0.19921875 0.7978515625
vt 0.19921875 0.8779296875
vt 0.182291796875 0.97265625
vt 0.182291796875 0.71875
vt 0.233073046875 0.7978515625
vt 0.19921875 0.7978515625
vt 0.182291796875 0.71875
vt 0.25 0.71875
vt 0.233073046875 0.8779296875
vt 0.233073046875 0.7978515625
vt 0.25 0.71875
vt 0.25 0.97265625
vt 0.0703125 0.984375
vt 0.10546875 0.984375
vt 0.10546875 0.98828125
vt 0.0703125 0.98828125
vt 0.07421875 0.86328125
vt 0.07421875 0.9453125
vt 0.0703125 0.9453125
vt 0.0703125 0.86328125
vt 0.13671875 0.9296875
vt 0.1015625 0.9296875
vt 0.1015625 0.92578125
vt 0.13671875 0.92578125
vt 0.078125 0.9453125
vt 0.078125 0.86328125
vt 0.08203125 0.86328125
vt 0.08203125 0.9453125
vn 1 0 0
vn -1 0 0
vn 0 1 0
vn 0 -1 0
vn 0 0 1
vn 0 0 -1
vn 0 0 1
vn 0 0 1
vn -1 0 0
vn -1 0 0
vn 0 0 -1
vn 0 0 -1
vn 1 0 0
vn 1 0 0
vn 0 1 0
vn 0 1 0
vn 0 0 -1
vn 0 0 -1
vn 0 0 -1
vn 0 0 -1
vn 0 0 -1
vn 0 0 -1
vn 0 -1 0
vn 0 -1 0
vn 0 0 1
vn 0 0 1
vn 0 0 1
vn 0 0 1
vn 0 0 1
vn 0 0 1
vn -1 0 0
vn -1 0 0
vn 0 0 -1
vn 0 0 -1
vn 0 0 -1
vn 0 0 -1
vn 0 0 -1
vn 0 0 -1
vn 1 0 0
vn 1 0 0
vn 0 0 1
vn 0 0 1
vn 0 0 1
vn 0 0 1
vn 0 0 1
vn 0 0 1
vn 0 1 0
vn -1 0 0
vn 0 -1 0
vn 1 0 0
vn -1 0 0
vn 0 -1 0
vn 1 0 0
vn 0 1 0
vn 0 0 1
vn 0 0 1
vn 0 0 1
vn 0 0 1
vn 0 -1 0
vn 1 0 0
vn 0 1 0
vn -1 0 0
vn 0 0 1
vn 0 0 1
vn 0 0 1
vn 0 0 1
vn 0 1 0
vn -1 0 0
vn 0 -1 0
vn 1 0 0
usemtl m_cce3cafd-d305-8776-8c17-874555d4be8f
f 1/1/1 11/2/1 16/3/1 2/4/1
f 6/5/2 14/6/2 12/7/2 5/8/2
f 2/9/3 20/10/3 19/11/3 1/12/3
f 3/13/4 28/14/4 26/15/4 4/16/4
f 1/17/5 19/18/5 32/19/5 11/20/5
f 16/21/6 22/22/6 20/23/6 2/24/6
f 30/25/7 46/26/7 44/27/7 9/28/7
f 69/29/8 71/30/8 70/31/8 72/32/8
f 13/33/9 36/34/9 35/35/9 10/36/9
f 10/37/10 12/38/10 14/39/10 13/40/10
f 15/41/11 42/42/11 40/43/11 24/44/11
f 15/45/12 24/46/12 22/47/12 16/48/12
f 9/49/13 44/50/13 42/51/13 15/52/13
f 15/53/14 16/54/14 11/55/14 9/56/14
f 5/57/15 17/58/15 18/59/15 6/60/15
f 17/61/16 19/62/16 20/63/16 18/64/16
f 6/65/17 18/66/17 21/67/17 14/68/17
f 18/69/18 20/70/18 22/71/18 21/72/18
f 14/73/19 21/74/19 23/75/19 13/76/19
f 21/77/20 22/78/20 24/79/20 23/80/20
f 23/81/21 38/82/21 36/83/21 13/84/21
f 24/85/22 40/86/22 38/87/22 23/88/22
f 8/89/23 25/90/23 27/91/23 7/92/23
f 25/93/24 26/94/24 28/95/24 27/96/24
f 10/97/25 35/98/25 48/99/25 29/100/25
f 29/101/26 48/102/26 46/103/26 30/104/26
f 10/105/27 29/106/27 31/107/27 12/108/27
f 49/109/28 50/110/28 51/111/28 52/112/28
f 12/113/29 31/114/29 17/115/29 5/116/29
f 61/117/30 62/118/30 63/119/30 64/120/30
f 7/121/31 33/122/31 34/123/31 8/124/31
f 33/125/32 35/126/32 36/127/32 34/128/32
f 8/129/33 34/130/33 37/131/33 25/132/33
f 34/133/34 36/134/34 38/135/34 37/136/34
f 25/137/35 37/138/35 39/139/35 26/140/35
f 37/141/36 38/142/36 40/143/36 39/144/36
f 26/145/37 39/146/37 41/147/37 4/148/37
f 39/149/38 40/150/38 42/151/38 41/152/38
f 4/153/39 41/154/39 43/155/39 3/156/39
f 41/157/40 42/158/40 44/159/40 43/160/40
f 3/161/41 43/162/41 45/163/41 28/164/41
f 43/165/42 44/166/42 46/167/42 45/168/42
f 28/169/43 45/170/43 47/171/43 27/172/43
f 53/173/44 54/174/44 55/175/44 56/176/44
f 27/177/45 47/178/45 33/179/45 7/180/45
f 47/181/46 48/182/46 35/183/46 33/184/46
f 50/185/47 49/186/47 29/187/47 30/188/47
f 51/189/48 50/190/48 30/191/48 32/192/48
f 52/193/49 51/194/49 32/195/49 31/196/49
f 49/197/50 52/198/50 31/199/50 29/200/50
f 54/201/51 53/202/51 45/203/51 46/204/51
f 55/205/52 54/206/52 46/207/52 48/208/52
f 56/209/53 55/210/53 48/211/53 47/212/53
f 53/213/54 56/214/54 47/215/54 45/216/54
f 58/217/55 57/218/55 31/219/55 32/220/55
f 59/221/56 58/222/56 32/223/56 19/224/56
f 60/225/57 59/226/57 19/227/57 17/228/57
f 57/229/58 60/230/58 17/231/58 31/232/58
f 62/233/59 61/234/59 57/235/59 58/236/59
f 63/237/60 62/238/60 58/239/60 59/240/60
f 64/241/61 63/242/61 59/243/61 60/244/61
f 61/245/62 64/246/62 60/247/62 57/248/62
f 67/249/63 65/250/63 11/251/63 32/252/63
f 66/253/64 67/254/64 32/255/64 30/256/64
f 68/257/65 66/258/65 30/259/65 9/260/65
f 65/261/66 68/262/66 9/263/66 11/264/66
f 71/265/67 69/266/67 65/267/67 67/268/67
f 70/269/68 71/270/68 67/271/68 66/272/68
f 72/273/69 70/274/69 66/275/69 68/276/69
f 69/277/70 72/278/70 68/279/70 65/280/70